<?xml version="1.0" encoding="UTF-8" standalone="no"?>
<!DOCTYPE svg PUBLIC "-//W3C//DTD SVG 1.1//EN"
 "http://www.w3.org/Graphics/SVG/1.1/DTD/svg11.dtd">
<!-- Generated by graphviz version 2.44.0 ()
 -->
<!-- Title: G Pages: 1 -->
<svg width="206pt" height="336pt"
 viewBox="0.00 0.00 205.50 336.00" xmlns="http://www.w3.org/2000/svg" xmlns:xlink="http://www.w3.org/1999/xlink">
<g id="graph0" class="graph" transform="scale(1 1) rotate(0) translate(4 332)">
<title>G</title>
<polygon fill="white" stroke="transparent" points="-4,4 -4,-332 201.5,-332 201.5,4 -4,4"/>
<!-- selection -->
<g id="node1" class="node">
<title>selection</title>
<path fill="#e7d4e8" stroke="#762a83" d="M83.5,-328C83.5,-328 23.5,-328 23.5,-328 17.5,-328 11.5,-322 11.5,-316 11.5,-316 11.5,-304 11.5,-304 11.5,-298 17.5,-292 23.5,-292 23.5,-292 83.5,-292 83.5,-292 89.5,-292 95.5,-298 95.5,-304 95.5,-304 95.5,-316 95.5,-316 95.5,-322 89.5,-328 83.5,-328"/>
<text text-anchor="middle" x="53.5" y="-306.3" font-family="Helvetica,sans-Serif" font-size="14.00" fill="#762a83">Selection</text>
</g>
<!-- narrowing -->
<g id="node2" class="node">
<title>narrowing</title>
<path fill="#e7d4e8" stroke="#762a83" d="M83.5,-255C83.5,-255 23.5,-255 23.5,-255 17.5,-255 11.5,-249 11.5,-243 11.5,-243 11.5,-231 11.5,-231 11.5,-225 17.5,-219 23.5,-219 23.5,-219 83.5,-219 83.5,-219 89.5,-219 95.5,-225 95.5,-231 95.5,-231 95.5,-243 95.5,-243 95.5,-249 89.5,-255 83.5,-255"/>
<text text-anchor="middle" x="53.5" y="-233.3" font-family="Helvetica,sans-Serif" font-size="14.00" fill="#762a83">Narrowing</text>
</g>
<!-- selection&#45;&gt;narrowing -->
<g id="edge1" class="edge">
<title>selection&#45;&gt;narrowing</title>
<path fill="none" stroke="#762a83" d="M53.5,-291.81C53.5,-283.79 53.5,-274.05 53.5,-265.07"/>
<polygon fill="#762a83" stroke="#762a83" points="57,-265.03 53.5,-255.03 50,-265.03 57,-265.03"/>
</g>
<!-- transmission -->
<g id="node3" class="node">
<title>transmission</title>
<path fill="#e7d4e8" stroke="#762a83" d="M95,-182C95,-182 12,-182 12,-182 6,-182 0,-176 0,-170 0,-170 0,-158 0,-158 0,-152 6,-146 12,-146 12,-146 95,-146 95,-146 101,-146 107,-152 107,-158 107,-158 107,-170 107,-170 107,-176 101,-182 95,-182"/>
<text text-anchor="middle" x="53.5" y="-160.3" font-family="Helvetica,sans-Serif" font-size="14.00" fill="#762a83">Transmission</text>
</g>
<!-- narrowing&#45;&gt;transmission -->
<g id="edge2" class="edge">
<title>narrowing&#45;&gt;transmission</title>
<path fill="none" stroke="#762a83" d="M53.5,-218.81C53.5,-210.79 53.5,-201.05 53.5,-192.07"/>
<polygon fill="#762a83" stroke="#762a83" points="57,-192.03 53.5,-182.03 50,-192.03 57,-192.03"/>
</g>
<!-- status -->
<g id="node4" class="node">
<title>status</title>
<path fill="#e7d4e8" stroke="#762a83" d="M95,-109C95,-109 12,-109 12,-109 6,-109 0,-103 0,-97 0,-97 0,-85 0,-85 0,-79 6,-73 12,-73 12,-73 95,-73 95,-73 101,-73 107,-79 107,-85 107,-85 107,-97 107,-97 107,-103 101,-109 95,-109"/>
<text text-anchor="middle" x="53.5" y="-87.3" font-family="Helvetica,sans-Serif" font-size="14.00" fill="#762a83">Graph Status</text>
</g>
<!-- transmission&#45;&gt;status -->
<g id="edge3" class="edge">
<title>transmission&#45;&gt;status</title>
<path fill="none" stroke="#762a83" d="M53.5,-145.81C53.5,-137.79 53.5,-128.05 53.5,-119.07"/>
<polygon fill="#762a83" stroke="#762a83" points="57,-119.03 53.5,-109.03 50,-119.03 57,-119.03"/>
</g>
<!-- status&#45;&gt;narrowing -->
<g id="edge5" class="edge">
<title>status:e&#45;&gt;narrowing:e</title>
<path fill="none" stroke="#1b7837" stroke-dasharray="5,2" d="M107.5,-91C169.01,-91 162.55,-221.47 106.69,-235.74"/>
<polygon fill="#1b7837" stroke="#1b7837" points="105.99,-232.3 96.5,-237 106.85,-239.24 105.99,-232.3"/>
<text text-anchor="middle" x="174.5" y="-167.8" font-family="Helvetica,sans-Serif" font-size="14.00" fill="#1b7837"> Next</text>
<text text-anchor="middle" x="174.5" y="-152.8" font-family="Helvetica,sans-Serif" font-size="14.00" fill="#1b7837"> Round</text>
</g>
<!-- cleanup -->
<g id="node5" class="node">
<title>cleanup</title>
<path fill="#e7d4e8" stroke="#762a83" d="M76,-36C76,-36 31,-36 31,-36 25,-36 19,-30 19,-24 19,-24 19,-12 19,-12 19,-6 25,0 31,0 31,0 76,0 76,0 82,0 88,-6 88,-12 88,-12 88,-24 88,-24 88,-30 82,-36 76,-36"/>
<text text-anchor="middle" x="53.5" y="-14.3" font-family="Helvetica,sans-Serif" font-size="14.00" fill="#762a83">Cleanup</text>
</g>
<!-- status&#45;&gt;cleanup -->
<g id="edge4" class="edge">
<title>status&#45;&gt;cleanup</title>
<path fill="none" stroke="#762a83" d="M53.5,-72.81C53.5,-64.79 53.5,-55.05 53.5,-46.07"/>
<polygon fill="#762a83" stroke="#762a83" points="57,-46.03 53.5,-36.03 50,-46.03 57,-46.03"/>
</g>
</g>
</svg>
