<?xml version="1.0" encoding="UTF-8" standalone="no"?>
<!DOCTYPE svg PUBLIC "-//W3C//DTD SVG 1.1//EN"
 "http://www.w3.org/Graphics/SVG/1.1/DTD/svg11.dtd">
<!-- Generated by graphviz version 2.44.0 ()
 -->
<!-- Title: G Pages: 1 -->
<svg width="908pt" height="563pt"
 viewBox="0.00 0.00 908.00 563.00" xmlns="http://www.w3.org/2000/svg" xmlns:xlink="http://www.w3.org/1999/xlink">
<g id="graph0" class="graph" transform="scale(1 1) rotate(0) translate(4 559)">
<title>G</title>
<polygon fill="white" stroke="transparent" points="-4,4 -4,-559 904,-559 904,4 -4,4"/>
<!-- req -->
<g id="node1" class="node">
<title>req</title>
<path fill="#e7d4e8" stroke="#762a83" d="M360,-554C360,-554 300,-554 300,-554 294,-554 288,-548 288,-542 288,-542 288,-530 288,-530 288,-524 294,-518 300,-518 300,-518 360,-518 360,-518 366,-518 372,-524 372,-530 372,-530 372,-542 372,-542 372,-548 366,-554 360,-554"/>
<text text-anchor="middle" x="330" y="-532.3" font-family="Helvetica,sans-Serif" font-size="14.00" fill="#762a83">Requestor</text>
</g>
<!-- req_busy -->
<g id="node2" class="node">
<title>req_busy</title>
<polygon fill="#e7d4e8" stroke="#762a83" points="357,-419 303,-419 303,-75 357,-75 357,-419"/>
</g>
<!-- req&#45;&gt;req_busy -->
<g id="edge13" class="edge">
<title>req&#45;&gt;req_busy</title>
<path fill="none" stroke="black" stroke-dasharray="5,2" d="M330,-517.91C330,-497.09 330,-459.66 330,-419.18"/>
</g>
<!-- req_end -->
<!-- req_busy&#45;&gt;req_end -->
<g id="edge4" class="edge">
<title>req_busy&#45;&gt;req_end</title>
<path fill="none" stroke="#762a83" stroke-dasharray="5,2" d="M330,-75C330,-53.13 330,-35.24 330,-26.26"/>
<polygon fill="#762a83" stroke="#762a83" points="325,-22.06 335,-22.06 335,-24.06 325,-24.06 325,-22.06"/>
<polyline fill="none" stroke="#762a83" points="330,-21.06 330,-26.06 "/>
</g>
<!-- req_next -->
<g id="node5" class="node">
<title>req_next</title>
<path fill="#e7d4e8" stroke="#762a83" d="M132,-38C132,-38 12,-38 12,-38 6,-38 0,-32 0,-26 0,-26 0,-12 0,-12 0,-6 6,0 12,0 12,0 132,0 132,0 138,0 144,-6 144,-12 144,-12 144,-26 144,-26 144,-32 138,-38 132,-38"/>
<text text-anchor="middle" x="72" y="-22.8" font-family="Helvetica,sans-Serif" font-size="14.00" fill="#762a83">Updated</text>
<text text-anchor="middle" x="72" y="-7.8" font-family="Helvetica,sans-Serif" font-size="14.00" fill="#762a83">Bloom &amp; CID Roots</text>
</g>
<!-- req_busy&#45;&gt;req_next -->
<g id="edge3" class="edge">
<title>req_busy:sw&#45;&gt;req_next</title>
<path fill="none" stroke="#762a83" stroke-width="2" d="M303,-75C303,-75 220.6,-55.38 154.22,-39.58"/>
<polygon fill="#762a83" stroke="#762a83" stroke-width="2" points="154.68,-36.09 144.14,-37.18 153.06,-42.9 154.68,-36.09"/>
<text text-anchor="middle" x="187.11" y="-76.09" font-family="Helvetica,sans-Serif" font-size="14.00" fill="#762a83">Update</text>
<text text-anchor="middle" x="187.11" y="-61.09" font-family="Helvetica,sans-Serif" font-size="14.00" fill="#762a83">Local Store</text>
</g>
<!-- resp_busy -->
<g id="node7" class="node">
<title>resp_busy</title>
<polygon fill="#d9f0d3" stroke="#1b7837" points="565,-319 511,-319 511,-175 565,-175 565,-319"/>
</g>
<!-- req_busy&#45;&gt;resp_busy -->
<g id="edge11" class="edge">
<title>req_busy:ne&#45;&gt;resp_busy:nw</title>
<path fill="none" stroke="black" stroke-width="2" d="M356,-419C356,-419 469.43,-345.82 502.22,-324.66"/>
<polygon fill="black" stroke="black" stroke-width="2" points="504.49,-327.36 511,-319 500.7,-321.48 504.49,-327.36"/>
<text text-anchor="middle" x="434" y="-415.8" font-family="Courier,monospace" font-size="14.00">(Bloom, CID Roots)</text>
</g>
<!-- req_prev -->
<g id="node4" class="node">
<title>req_prev</title>
<path fill="#e7d4e8" stroke="#762a83" d="M132,-555C132,-555 12,-555 12,-555 6,-555 0,-549 0,-543 0,-543 0,-529 0,-529 0,-523 6,-517 12,-517 12,-517 132,-517 132,-517 138,-517 144,-523 144,-529 144,-529 144,-543 144,-543 144,-549 138,-555 132,-555"/>
<text text-anchor="middle" x="72" y="-539.8" font-family="Helvetica,sans-Serif" font-size="14.00" fill="#762a83">Previous Round</text>
<text text-anchor="middle" x="72" y="-524.8" font-family="Helvetica,sans-Serif" font-size="14.00" fill="#762a83">Bloom &amp; CID Roots</text>
</g>
<!-- req_prev&#45;&gt;req -->
<!-- req_prev&#45;&gt;req_busy -->
<g id="edge2" class="edge">
<title>req_prev&#45;&gt;req_busy:nw</title>
<path fill="none" stroke="#762a83" stroke-width="2" d="M108.09,-516.88C162.66,-489.48 263.05,-439.06 293.8,-423.62"/>
<polygon fill="#762a83" stroke="#762a83" stroke-width="2" points="295.63,-426.62 303,-419 292.49,-420.36 295.63,-426.62"/>
<text text-anchor="middle" x="243" y="-487.8" font-family="Helvetica,sans-Serif" font-size="14.00" fill="#762a83">Find new subgraph root</text>
<text text-anchor="middle" x="243" y="-472.8" font-family="Helvetica,sans-Serif" font-size="14.00" fill="#762a83">&amp; update Bloom</text>
</g>
<!-- req_prev&#45;&gt;req_next -->
<g id="edge1" class="edge">
<title>req_prev&#45;&gt;req_next</title>
<path fill="none" stroke="#762a83" d="M72,-516.99C72,-438.93 72,-142.74 72,-48.2"/>
<polygon fill="#762a83" stroke="#762a83" points="75.5,-48.19 72,-38.19 68.5,-48.19 75.5,-48.19"/>
</g>
<!-- resp -->
<g id="node6" class="node">
<title>resp</title>
<path fill="#d9f0d3" stroke="#1b7837" d="M568,-554C568,-554 508,-554 508,-554 502,-554 496,-548 496,-542 496,-542 496,-530 496,-530 496,-524 502,-518 508,-518 508,-518 568,-518 568,-518 574,-518 580,-524 580,-530 580,-530 580,-542 580,-542 580,-548 574,-554 568,-554"/>
<text text-anchor="middle" x="538" y="-532.3" font-family="Helvetica,sans-Serif" font-size="14.00" fill="#1b7837">Responder</text>
</g>
<!-- resp&#45;&gt;resp_busy -->
<g id="edge14" class="edge">
<title>resp&#45;&gt;resp_busy</title>
<path fill="none" stroke="black" stroke-dasharray="5,2" d="M538,-517.91C538,-479.71 538,-385.6 538,-319.3"/>
</g>
<!-- resp_busy&#45;&gt;req_busy -->
<g id="edge12" class="edge">
<title>resp_busy:sw&#45;&gt;req_busy:se</title>
<path fill="none" stroke="black" stroke-width="2" d="M512,-175C512,-175 398.57,-101.82 365.78,-80.66"/>
<polygon fill="black" stroke="black" stroke-width="2" points="367.3,-77.48 357,-75 363.51,-83.36 367.3,-77.48"/>
<text text-anchor="middle" x="434" y="-172.8" font-family="Courier,monospace" font-size="14.00">CAR {CID =&gt; Block}</text>
</g>
<!-- resp_end -->
<!-- resp_busy&#45;&gt;resp_end -->
<g id="edge10" class="edge">
<title>resp_busy&#45;&gt;resp_end</title>
<path fill="none" stroke="#1b7837" stroke-dasharray="5,2" d="M538,-174.8C538,-119.01 538,-47.38 538,-26.17"/>
<polygon fill="#1b7837" stroke="#1b7837" points="533,-22.01 543,-22.01 543,-24.01 533,-24.01 533,-22.01"/>
<polyline fill="none" stroke="#1b7837" points="538,-21.01 538,-26.01 "/>
</g>
<!-- resp_car -->
<g id="node11" class="node">
<title>resp_car</title>
<path fill="#d9f0d3" stroke="#1b7837" d="M798.5,-265C798.5,-265 715.5,-265 715.5,-265 709.5,-265 703.5,-259 703.5,-253 703.5,-253 703.5,-241 703.5,-241 703.5,-235 709.5,-229 715.5,-229 715.5,-229 798.5,-229 798.5,-229 804.5,-229 810.5,-235 810.5,-241 810.5,-241 810.5,-253 810.5,-253 810.5,-259 804.5,-265 798.5,-265"/>
<text text-anchor="middle" x="757" y="-243.3" font-family="Helvetica,sans-Serif" font-size="14.00" fill="#1b7837">Response CAR</text>
</g>
<!-- resp_busy&#45;&gt;resp_car -->
<g id="edge7" class="edge">
<title>resp_busy:ne&#45;&gt;resp_car:n</title>
<path fill="none" stroke="#1b7837" stroke-width="2" d="M564,-319C564,-319 707.83,-279.5 747.16,-268.7"/>
<polygon fill="#1b7837" stroke="#1b7837" stroke-width="2" points="748.28,-272.02 757,-266 746.43,-265.27 748.28,-272.02"/>
<text text-anchor="middle" x="634" y="-319.8" font-family="Helvetica,sans-Serif" font-size="14.00" fill="#1b7837">Walk local graph</text>
</g>
<!-- resp_prev -->
<g id="node9" class="node">
<title>resp_prev</title>
<path fill="#d9f0d3" stroke="#1b7837" d="M888,-555C888,-555 790,-555 790,-555 784,-555 778,-549 778,-543 778,-543 778,-529 778,-529 778,-523 784,-517 790,-517 790,-517 888,-517 888,-517 894,-517 900,-523 900,-529 900,-529 900,-543 900,-543 900,-549 894,-555 888,-555"/>
<text text-anchor="middle" x="839" y="-539.8" font-family="Helvetica,sans-Serif" font-size="14.00" fill="#1b7837">Previous Round</text>
<text text-anchor="middle" x="839" y="-524.8" font-family="Helvetica,sans-Serif" font-size="14.00" fill="#1b7837">Hash Set</text>
</g>
<!-- resp_next -->
<g id="node10" class="node">
<title>resp_next</title>
<path fill="#d9f0d3" stroke="#1b7837" d="M865.5,-38C865.5,-38 812.5,-38 812.5,-38 806.5,-38 800.5,-32 800.5,-26 800.5,-26 800.5,-12 800.5,-12 800.5,-6 806.5,0 812.5,0 812.5,0 865.5,0 865.5,0 871.5,0 877.5,-6 877.5,-12 877.5,-12 877.5,-26 877.5,-26 877.5,-32 871.5,-38 865.5,-38"/>
<text text-anchor="middle" x="839" y="-22.8" font-family="Helvetica,sans-Serif" font-size="14.00" fill="#1b7837">Updated</text>
<text text-anchor="middle" x="839" y="-7.8" font-family="Helvetica,sans-Serif" font-size="14.00" fill="#1b7837">Hash Set</text>
</g>
<!-- resp_prev&#45;&gt;resp_next -->
<g id="edge5" class="edge">
<title>resp_prev&#45;&gt;resp_next:n</title>
<path fill="none" stroke="#1b7837" d="M839,-516.78C839,-434.02 839,-109.42 839,-48.04"/>
<polygon fill="#1b7837" stroke="#1b7837" points="842.5,-48 839,-38 835.5,-48 842.5,-48"/>
</g>
<!-- resp_prev&#45;&gt;resp_car -->
<g id="edge6" class="edge">
<title>resp_prev&#45;&gt;resp_car:n</title>
<path fill="none" stroke="#1b7837" d="M833.49,-516.93C817.58,-464.75 771.94,-315.01 759.93,-275.6"/>
<polygon fill="#1b7837" stroke="#1b7837" points="763.26,-274.54 757,-266 756.57,-276.59 763.26,-274.54"/>
</g>
<!-- resp_next&#45;&gt;resp_car -->
<!-- resp_car&#45;&gt;resp_busy -->
<g id="edge8" class="edge">
<title>resp_car:s&#45;&gt;resp_busy:se</title>
<path fill="none" stroke="#1b7837" stroke-width="2" d="M757,-228C757,-228 613.91,-188.5 574.79,-177.7"/>
<polygon fill="#1b7837" stroke="#1b7837" stroke-width="2" points="575.57,-174.29 565,-175 573.71,-181.03 575.57,-174.29"/>
</g>
<!-- resp_car&#45;&gt;resp_next -->
<g id="edge9" class="edge">
<title>resp_car:s&#45;&gt;resp_next</title>
<path fill="none" stroke="#1b7837" d="M757,-228C757,-228 805.87,-104.03 828.16,-47.51"/>
<polygon fill="#1b7837" stroke="#1b7837" points="831.45,-48.68 831.87,-38.09 824.94,-46.11 831.45,-48.68"/>
</g>
</g>
</svg>
