<?xml version="1.0" encoding="UTF-8" standalone="no"?>
<!DOCTYPE svg PUBLIC "-//W3C//DTD SVG 1.1//EN"
 "http://www.w3.org/Graphics/SVG/1.1/DTD/svg11.dtd">
<!-- Generated by graphviz version 2.44.0 ()
 -->
<!-- Title: G Pages: 1 -->
<svg width="785pt" height="651pt"
 viewBox="0.00 0.00 785.00 651.00" xmlns="http://www.w3.org/2000/svg" xmlns:xlink="http://www.w3.org/1999/xlink">
<g id="graph0" class="graph" transform="scale(1 1) rotate(0) translate(4 647)">
<title>G</title>
<polygon fill="white" stroke="transparent" points="-4,4 -4,-647 781,-647 781,4 -4,4"/>
<!-- req -->
<g id="node1" class="node">
<title>req</title>
<path fill="#e7d4e8" stroke="#762a83" d="M360,-642C360,-642 300,-642 300,-642 294,-642 288,-636 288,-630 288,-630 288,-618 288,-618 288,-612 294,-606 300,-606 300,-606 360,-606 360,-606 366,-606 372,-612 372,-618 372,-618 372,-630 372,-630 372,-636 366,-642 360,-642"/>
<text text-anchor="middle" x="330" y="-620.3" font-family="Helvetica,sans-Serif" font-size="14.00" fill="#762a83">Requestor</text>
</g>
<!-- req_busy -->
<g id="node2" class="node">
<title>req_busy</title>
<polygon fill="#e7d4e8" stroke="#762a83" points="357,-464 303,-464 303,-120 357,-120 357,-464"/>
</g>
<!-- req&#45;&gt;req_busy -->
<g id="edge14" class="edge">
<title>req&#45;&gt;req_busy</title>
<path fill="none" stroke="black" stroke-dasharray="5,2" d="M330,-605.68C330,-577.67 330,-521.43 330,-464.2"/>
</g>
<!-- req_next -->
<g id="node4" class="node">
<title>req_next</title>
<path fill="#e7d4e8" stroke="#762a83" d="M210,-38C210,-38 90,-38 90,-38 84,-38 78,-32 78,-26 78,-26 78,-12 78,-12 78,-6 84,0 90,0 90,0 210,0 210,0 216,0 222,-6 222,-12 222,-12 222,-26 222,-26 222,-32 216,-38 210,-38"/>
<text text-anchor="middle" x="150" y="-22.8" font-family="Helvetica,sans-Serif" font-size="14.00" fill="#762a83">Updated</text>
<text text-anchor="middle" x="150" y="-7.8" font-family="Helvetica,sans-Serif" font-size="14.00" fill="#762a83">Bloom &amp; CID Roots</text>
</g>
<!-- req_busy&#45;&gt;req_next -->
<g id="edge2" class="edge">
<title>req_busy:sw&#45;&gt;req_next</title>
<path fill="none" stroke="#762a83" stroke-width="2" d="M303,-120C303,-120 231.33,-73.16 186.1,-43.59"/>
<polygon fill="#762a83" stroke="#762a83" stroke-width="2" points="187.99,-40.65 177.71,-38.11 184.16,-46.51 187.99,-40.65"/>
<text text-anchor="middle" x="284.5" y="-74.8" font-family="Helvetica,sans-Serif" font-size="14.00" fill="#762a83">Update</text>
<text text-anchor="middle" x="284.5" y="-59.8" font-family="Helvetica,sans-Serif" font-size="14.00" fill="#762a83">local cache</text>
</g>
<!-- req_end -->
<!-- req_busy&#45;&gt;req_end -->
<g id="edge3" class="edge">
<title>req_busy&#45;&gt;req_end</title>
<path fill="none" stroke="#762a83" stroke-dasharray="5,2" d="M330,-119.76C330,-77.4 330,-40.07 330,-25.98"/>
<polygon fill="#762a83" stroke="#762a83" points="325,-21.82 335,-21.82 335,-23.82 325,-23.82 325,-21.82"/>
<polyline fill="none" stroke="#762a83" points="330,-20.82 330,-25.82 "/>
</g>
<!-- resp_busy -->
<g id="node8" class="node">
<title>resp_busy</title>
<polygon fill="#d9f0d3" stroke="#1b7837" points="565,-364 511,-364 511,-220 565,-220 565,-364"/>
</g>
<!-- req_busy&#45;&gt;resp_busy -->
<g id="edge12" class="edge">
<title>req_busy:ne&#45;&gt;resp_busy:nw</title>
<path fill="none" stroke="black" stroke-width="2" d="M356,-464C356,-464 511,-364 511,-364"/>
<text text-anchor="middle" x="434" y="-490.8" font-family="Courier,monospace" font-size="14.00">CAR {CID =&gt; Block}</text>
<text text-anchor="middle" x="434" y="-475.8" font-family="Courier,monospace" font-size="14.00">and remaining</text>
<text text-anchor="middle" x="434" y="-460.8" font-family="Courier,monospace" font-size="14.00">graph Bloom </text>
</g>
<!-- req_prev -->
<g id="node3" class="node">
<title>req_prev</title>
<path fill="#e7d4e8" stroke="#762a83" d="M132,-643C132,-643 12,-643 12,-643 6,-643 0,-637 0,-631 0,-631 0,-617 0,-617 0,-611 6,-605 12,-605 12,-605 132,-605 132,-605 138,-605 144,-611 144,-617 144,-617 144,-631 144,-631 144,-637 138,-643 132,-643"/>
<text text-anchor="middle" x="72" y="-627.8" font-family="Helvetica,sans-Serif" font-size="14.00" fill="#762a83">Previous Round</text>
<text text-anchor="middle" x="72" y="-612.8" font-family="Helvetica,sans-Serif" font-size="14.00" fill="#762a83">Bloom &amp; CID Roots</text>
</g>
<!-- req_prev&#45;&gt;req -->
<!-- req_prev&#45;&gt;req_next -->
<g id="edge1" class="edge">
<title>req_prev&#45;&gt;req_next:nw</title>
<path fill="none" stroke="#762a83" d="M72.2,-604.84C73.14,-512.72 77.19,-117.07 77.9,-48.23"/>
<polygon fill="#762a83" stroke="#762a83" points="81.4,-48.04 78,-38 74.4,-47.96 81.4,-48.04"/>
</g>
<!-- req_car -->
<g id="node6" class="node">
<title>req_car</title>
<path fill="#e7d4e8" stroke="#762a83" d="M187.5,-539C187.5,-539 112.5,-539 112.5,-539 106.5,-539 100.5,-533 100.5,-527 100.5,-527 100.5,-513 100.5,-513 100.5,-507 106.5,-501 112.5,-501 112.5,-501 187.5,-501 187.5,-501 193.5,-501 199.5,-507 199.5,-513 199.5,-513 199.5,-527 199.5,-527 199.5,-533 193.5,-539 187.5,-539"/>
<text text-anchor="middle" x="150" y="-523.8" font-family="Helvetica,sans-Serif" font-size="14.00" fill="#762a83">Request CAR</text>
<text text-anchor="middle" x="150" y="-508.8" font-family="Helvetica,sans-Serif" font-size="14.00" fill="#762a83">DAG Bloom</text>
</g>
<!-- req_prev&#45;&gt;req_car -->
<g id="edge4" class="edge">
<title>req_prev&#45;&gt;req_car</title>
<path fill="none" stroke="#762a83" d="M85.94,-604.76C98.15,-588.81 116.02,-565.43 129.79,-547.43"/>
<polygon fill="#762a83" stroke="#762a83" points="132.88,-549.15 136.18,-539.08 127.32,-544.9 132.88,-549.15"/>
<text text-anchor="middle" x="162.5" y="-575.8" font-family="Helvetica,sans-Serif" font-size="14.00" fill="#762a83">Walk</text>
<text text-anchor="middle" x="162.5" y="-560.8" font-family="Helvetica,sans-Serif" font-size="14.00" fill="#762a83">local graph</text>
</g>
<!-- req_car&#45;&gt;req_busy -->
<g id="edge5" class="edge">
<title>req_car&#45;&gt;req_busy:nw</title>
<path fill="none" stroke="#762a83" d="M199.67,-501.14C233.36,-489.04 274.98,-474.07 293.43,-467.44"/>
<polygon fill="#762a83" stroke="#762a83" points="294.77,-470.68 303,-464 292.41,-464.09 294.77,-470.68"/>
</g>
<!-- req_car&#45;&gt;req_next -->
<g id="edge6" class="edge">
<title>req_car&#45;&gt;req_next</title>
<path fill="none" stroke="#762a83" d="M150,-500.97C150,-424.63 150,-140.29 150,-48.07"/>
<polygon fill="#762a83" stroke="#762a83" points="153.5,-48.05 150,-38.05 146.5,-48.05 153.5,-48.05"/>
</g>
<!-- resp -->
<g id="node7" class="node">
<title>resp</title>
<path fill="#d9f0d3" stroke="#1b7837" d="M568,-642C568,-642 508,-642 508,-642 502,-642 496,-636 496,-630 496,-630 496,-618 496,-618 496,-612 502,-606 508,-606 508,-606 568,-606 568,-606 574,-606 580,-612 580,-618 580,-618 580,-630 580,-630 580,-636 574,-642 568,-642"/>
<text text-anchor="middle" x="538" y="-620.3" font-family="Helvetica,sans-Serif" font-size="14.00" fill="#1b7837">Responder</text>
</g>
<!-- resp&#45;&gt;resp_busy -->
<g id="edge15" class="edge">
<title>resp&#45;&gt;resp_busy</title>
<path fill="none" stroke="black" stroke-dasharray="5,2" d="M538,-605.68C538,-560.55 538,-442.05 538,-364.31"/>
</g>
<!-- resp_busy&#45;&gt;req_busy -->
<g id="edge13" class="edge">
<title>resp_busy:sw&#45;&gt;req_busy:se</title>
<path fill="none" stroke="black" stroke-width="2" d="M512,-220C512,-220 357,-120 357,-120"/>
<text text-anchor="middle" x="434" y="-217.8" font-family="Courier,monospace" font-size="14.00">(Bloom, CID Roots)</text>
</g>
<!-- resp_end -->
<!-- resp_busy&#45;&gt;resp_end -->
<g id="edge11" class="edge">
<title>resp_busy&#45;&gt;resp_end</title>
<path fill="none" stroke="#1b7837" stroke-dasharray="5,2" d="M538,-219.8C538,-150.7 538,-52.56 538,-26.54"/>
<polygon fill="#1b7837" stroke="#1b7837" points="533,-22.36 543,-22.36 543,-24.36 533,-24.36 533,-22.36"/>
<polyline fill="none" stroke="#1b7837" points="538,-21.36 538,-26.36 "/>
</g>
<!-- resp_bloom -->
<g id="node12" class="node">
<title>resp_bloom</title>
<path fill="#d9f0d3" stroke="#1b7837" d="M746,-311C746,-311 686,-311 686,-311 680,-311 674,-305 674,-299 674,-299 674,-285 674,-285 674,-279 680,-273 686,-273 686,-273 746,-273 746,-273 752,-273 758,-279 758,-285 758,-285 758,-299 758,-299 758,-305 752,-311 746,-311"/>
<text text-anchor="middle" x="716" y="-295.8" font-family="Helvetica,sans-Serif" font-size="14.00" fill="#1b7837">Bloom &amp;</text>
<text text-anchor="middle" x="716" y="-280.8" font-family="Helvetica,sans-Serif" font-size="14.00" fill="#1b7837">CID Roots</text>
</g>
<!-- resp_busy&#45;&gt;resp_bloom -->
<g id="edge8" class="edge">
<title>resp_busy:ne&#45;&gt;resp_bloom:n</title>
<path fill="none" stroke="#1b7837" stroke-width="2" d="M564,-364C564,-364 716,-312 716,-312"/>
<text text-anchor="middle" x="619" y="-393.8" font-family="Helvetica,sans-Serif" font-size="14.00" fill="#1b7837">Add blocks</text>
<text text-anchor="middle" x="619" y="-378.8" font-family="Helvetica,sans-Serif" font-size="14.00" fill="#1b7837">&amp; compare</text>
<text text-anchor="middle" x="619" y="-363.8" font-family="Helvetica,sans-Serif" font-size="14.00" fill="#1b7837">Bloom filter</text>
</g>
<!-- resp_prev -->
<g id="node10" class="node">
<title>resp_prev</title>
<path fill="#d9f0d3" stroke="#1b7837" d="M765,-643C765,-643 667,-643 667,-643 661,-643 655,-637 655,-631 655,-631 655,-617 655,-617 655,-611 661,-605 667,-605 667,-605 765,-605 765,-605 771,-605 777,-611 777,-617 777,-617 777,-631 777,-631 777,-637 771,-643 765,-643"/>
<text text-anchor="middle" x="716" y="-627.8" font-family="Helvetica,sans-Serif" font-size="14.00" fill="#1b7837">Previous Round</text>
<text text-anchor="middle" x="716" y="-612.8" font-family="Helvetica,sans-Serif" font-size="14.00" fill="#1b7837">Hash Set</text>
</g>
<!-- resp_prev&#45;&gt;resp_bloom -->
<g id="edge7" class="edge">
<title>resp_prev&#45;&gt;resp_bloom:n</title>
<path fill="none" stroke="#1b7837" d="M716,-604.89C716,-545.56 716,-365.82 716,-321.14"/>
<polygon fill="#1b7837" stroke="#1b7837" points="719.5,-321 716,-311 712.5,-321 719.5,-321"/>
</g>
<!-- resp_next -->
<g id="node11" class="node">
<title>resp_next</title>
<path fill="#d9f0d3" stroke="#1b7837" d="M742.5,-38C742.5,-38 689.5,-38 689.5,-38 683.5,-38 677.5,-32 677.5,-26 677.5,-26 677.5,-12 677.5,-12 677.5,-6 683.5,0 689.5,0 689.5,0 742.5,0 742.5,0 748.5,0 754.5,-6 754.5,-12 754.5,-12 754.5,-26 754.5,-26 754.5,-32 748.5,-38 742.5,-38"/>
<text text-anchor="middle" x="716" y="-22.8" font-family="Helvetica,sans-Serif" font-size="14.00" fill="#1b7837">Updated</text>
<text text-anchor="middle" x="716" y="-7.8" font-family="Helvetica,sans-Serif" font-size="14.00" fill="#1b7837">Hash Set</text>
</g>
<!-- resp_next&#45;&gt;resp_bloom -->
<!-- resp_bloom&#45;&gt;resp_busy -->
<g id="edge9" class="edge">
<title>resp_bloom:s&#45;&gt;resp_busy:se</title>
<path fill="none" stroke="#1b7837" stroke-width="2" d="M716,-272C716,-272 565,-220 565,-220"/>
</g>
<!-- resp_bloom&#45;&gt;resp_next -->
<g id="edge10" class="edge">
<title>resp_bloom:s&#45;&gt;resp_next</title>
<path fill="none" stroke="#1b7837" d="M716,-272C716,-272 716,-113.99 716,-48.21"/>
<polygon fill="#1b7837" stroke="#1b7837" points="719.5,-48.12 716,-38.12 712.5,-48.12 719.5,-48.12"/>
</g>
</g>
</svg>
